# xmcd
#
# Track frame offsets:
#	182
#	20970
#	39797
#	59042
#	80960
#	94785
#	114437
#	133860
#	156502
#	172190
#
# Disc length: 2508 seconds
#
# Revision: 1
# Processed by: cddbd v1.5.2PL0 Copyright (c) Steve Scherf et al.
# Submitted via: EasyCDDAExtractor 10.5.1.1
#
DISCID=9209ca0a
DTITLE=Sadane - One Way Love Affair 
DYEAR=1981
DGENRE=Soul
TTITLE0=One-Way Love Affair
TTITLE1=You're The One For Me
TTITLE2=The Fool In Me
TTITLE3=Never Gonna Stop This Heart Of Mine
TTITLE4=Standing In The Shadows Of Love
TTITLE5=Sit Up
TTITLE6=Girl Come On (Let's Get It On)
TTITLE7=Love Can't Wait
TTITLE8=Midnight Love Dance
TTITLE9=Make Up Your Mind
EXTD=YEAR: 1981
EXTT0=
EXTT1=
EXTT2=
EXTT3=
EXTT4=
EXTT5=
EXTT6=
EXTT7=
EXTT8=
EXTT9=
PLAYORDER=
